HIERARCHY
ROOT mixamorig:Hips
{
	OFFSET 0.000000 103.991501 0.000000
	CHANNELS 6 Xposition Yposition Zposition Xrotation Yrotation Zrotation
	JOINT mixamorig:Spine
	{
		OFFSET 0.000000 10.181602 0.131500
		CHANNELS 6 Xposition Yposition Zposition Xrotation Yrotation Zrotation
		JOINT mixamorig:Spine1
		{
			OFFSET 0.000000 10.083504 -1.000800
			CHANNELS 6 Xposition Yposition Zposition Xrotation Yrotation Zrotation
			JOINT mixamorig:Spine2
			{
				OFFSET 0.000000 9.100006 -1.373400
				CHANNELS 6 Xposition Yposition Zposition Xrotation Yrotation Zrotation
				JOINT mixamorig:Neck
				{
					OFFSET 0.000000 16.671707 -2.516200
					CHANNELS 6 Xposition Yposition Zposition Xrotation Yrotation Zrotation
					JOINT mixamorig:Head
					{
						OFFSET 0.000000 9.617905 1.685000
						CHANNELS 6 Xposition Yposition Zposition Xrotation Yrotation Zrotation
						JOINT mixamorig:HeadTop_End
						{
							OFFSET 0.000000 17.815201 2.585000
							CHANNELS 6 Xposition Yposition Zposition Xrotation Yrotation Zrotation
							End Site
							{
								OFFSET 0.000000 13.794495 0.000000
							}
						}
						JOINT mixamorig:LeftEye
						{
							OFFSET 3.067600 6.409500 9.283600
							CHANNELS 6 Xposition Yposition Zposition Xrotation Yrotation Zrotation
							End Site
							{
								OFFSET 0.000000 13.794495 0.000000
							}
						}
						JOINT mixamorig:RightEye
						{
							OFFSET -3.067600 6.409500 9.283500
							CHANNELS 6 Xposition Yposition Zposition Xrotation Yrotation Zrotation
							End Site
							{
								OFFSET 0.000000 13.794495 0.000000
							}
						}
					}
				}
				JOINT mixamorig:LeftShoulder
				{
					OFFSET 4.570400 10.945999 -2.628000
					CHANNELS 6 Xposition Yposition Zposition Xrotation Yrotation Zrotation
					JOINT mixamorig:LeftArm
					{
						OFFSET 10.592400 -0.524597 -2.232100
						CHANNELS 6 Xposition Yposition Zposition Xrotation Yrotation Zrotation
						JOINT mixamorig:LeftForeArm
						{
							OFFSET 27.841499 0.000000 0.000000
							CHANNELS 6 Xposition Yposition Zposition Xrotation Yrotation Zrotation
							JOINT mixamorig:LeftHand
							{
								OFFSET 28.328800 0.000000 0.000000
								CHANNELS 6 Xposition Yposition Zposition Xrotation Yrotation Zrotation
								JOINT mixamorig:LeftHandThumb1
								{
									OFFSET 2.466103 -1.576218 2.681689
									CHANNELS 6 Xposition Yposition Zposition Xrotation Yrotation Zrotation
									JOINT mixamorig:LeftHandThumb2
									{
										OFFSET 3.229782 -1.864716 1.864716
										CHANNELS 6 Xposition Yposition Zposition Xrotation Yrotation Zrotation
										JOINT mixamorig:LeftHandThumb3
										{
											OFFSET 2.652611 -1.531494 1.531488
											CHANNELS 6 Xposition Yposition Zposition Xrotation Yrotation Zrotation
											JOINT mixamorig:LeftHandThumb4
											{
												OFFSET 1.954605 -1.128494 1.128493
												CHANNELS 6 Xposition Yposition Zposition Xrotation Yrotation Zrotation
												End Site
												{
													OFFSET -0.000404 2.523392 0.000683
												}
											}
										}
									}
								}
								JOINT mixamorig:LeftHandIndex1
								{
									OFFSET 9.109299 -0.518112 2.259867
									CHANNELS 6 Xposition Yposition Zposition Xrotation Yrotation Zrotation
									JOINT mixamorig:LeftHandIndex2
									{
										OFFSET 3.676399 0.000000 0.000000
										CHANNELS 6 Xposition Yposition Zposition Xrotation Yrotation Zrotation
										JOINT mixamorig:LeftHandIndex3
										{
											OFFSET 2.883102 0.000000 0.000000
											CHANNELS 6 Xposition Yposition Zposition Xrotation Yrotation Zrotation
											JOINT mixamorig:LeftHandIndex4
											{
												OFFSET 2.392700 0.000000 0.000000
												CHANNELS 6 Xposition Yposition Zposition Xrotation Yrotation Zrotation
												End Site
												{
													OFFSET 0.000000 2.392700 0.001080
												}
											}
										}
									}
								}
								JOINT mixamorig:LeftHandMiddle1
								{
									OFFSET 9.533401 0.000000 0.000000
									CHANNELS 6 Xposition Yposition Zposition Xrotation Yrotation Zrotation
									JOINT mixamorig:LeftHandMiddle2
									{
										OFFSET 3.698196 0.000000 0.000000
										CHANNELS 6 Xposition Yposition Zposition Xrotation Yrotation Zrotation
										JOINT mixamorig:LeftHandMiddle3
										{
											OFFSET 2.950897 0.000000 0.000000
											CHANNELS 6 Xposition Yposition Zposition Xrotation Yrotation Zrotation
											JOINT mixamorig:LeftHandMiddle4
											{
												OFFSET 2.833900 0.000000 0.000000
												CHANNELS 6 Xposition Yposition Zposition Xrotation Yrotation Zrotation
												End Site
												{
													OFFSET 0.000000 2.833893 0.001278
												}
											}
										}
									}
								}
								JOINT mixamorig:LeftHandRing1
								{
									OFFSET 9.104500 -0.043060 -1.865119
									CHANNELS 6 Xposition Yposition Zposition Xrotation Yrotation Zrotation
									JOINT mixamorig:LeftHandRing2
									{
										OFFSET 3.153999 0.000000 0.000000
										CHANNELS 6 Xposition Yposition Zposition Xrotation Yrotation Zrotation
										JOINT mixamorig:LeftHandRing3
										{
											OFFSET 2.937698 0.000000 0.000000
											CHANNELS 6 Xposition Yposition Zposition Xrotation Yrotation Zrotation
											JOINT mixamorig:LeftHandRing4
											{
												OFFSET 2.647499 0.000000 0.000000
												CHANNELS 6 Xposition Yposition Zposition Xrotation Yrotation Zrotation
												End Site
												{
													OFFSET 0.000000 2.647507 0.001195
												}
											}
										}
									}
								}
								JOINT mixamorig:LeftHandPinky1
								{
									OFFSET 8.077797 -0.486984 -3.806321
									CHANNELS 6 Xposition Yposition Zposition Xrotation Yrotation Zrotation
									JOINT mixamorig:LeftHandPinky2
									{
										OFFSET 3.599998 0.000000 0.000000
										CHANNELS 6 Xposition Yposition Zposition Xrotation Yrotation Zrotation
										JOINT mixamorig:LeftHandPinky3
										{
											OFFSET 2.114197 0.000000 0.000000
											CHANNELS 6 Xposition Yposition Zposition Xrotation Yrotation Zrotation
											JOINT mixamorig:LeftHandPinky4
											{
												OFFSET 1.975700 0.000000 0.000000
												CHANNELS 6 Xposition Yposition Zposition Xrotation Yrotation Zrotation
												End Site
												{
													OFFSET 0.000000 1.975693 0.000892
												}
											}
										}
									}
								}
							}
						}
					}
				}
				JOINT mixamorig:RightShoulder
				{
					OFFSET -4.570000 10.946198 -2.628000
					CHANNELS 6 Xposition Yposition Zposition Xrotation Yrotation Zrotation
					JOINT mixamorig:RightArm
					{
						OFFSET -10.592800 -0.524796 -2.232100
						CHANNELS 6 Xposition Yposition Zposition Xrotation Yrotation Zrotation
						JOINT mixamorig:RightForeArm
						{
							OFFSET -27.841499 0.000000 0.000000
							CHANNELS 6 Xposition Yposition Zposition Xrotation Yrotation Zrotation
							JOINT mixamorig:RightHand
							{
								OFFSET -28.328800 0.000000 0.000000
								CHANNELS 6 Xposition Yposition Zposition Xrotation Yrotation Zrotation
								JOINT mixamorig:RightHandPinky1
								{
									OFFSET -8.076698 -0.486725 -3.806227
									CHANNELS 6 Xposition Yposition Zposition Xrotation Yrotation Zrotation
									JOINT mixamorig:RightHandPinky2
									{
										OFFSET -3.599998 0.000000 0.000000
										CHANNELS 6 Xposition Yposition Zposition Xrotation Yrotation Zrotation
										JOINT mixamorig:RightHandPinky3
										{
											OFFSET -2.114197 0.000000 0.000000
											CHANNELS 6 Xposition Yposition Zposition Xrotation Yrotation Zrotation
											JOINT mixamorig:RightHandPinky4
											{
												OFFSET -1.975700 0.000000 0.000000
												CHANNELS 6 Xposition Yposition Zposition Xrotation Yrotation Zrotation
												End Site
												{
													OFFSET 0.000000 1.975693 0.000919
												}
											}
										}
									}
								}
								JOINT mixamorig:RightHandRing1
								{
									OFFSET -9.103600 -0.043030 -1.865120
									CHANNELS 6 Xposition Yposition Zposition Xrotation Yrotation Zrotation
									JOINT mixamorig:RightHandRing2
									{
										OFFSET -3.153999 0.000000 0.000000
										CHANNELS 6 Xposition Yposition Zposition Xrotation Yrotation Zrotation
										JOINT mixamorig:RightHandRing3
										{
											OFFSET -2.937698 0.000000 0.000000
											CHANNELS 6 Xposition Yposition Zposition Xrotation Yrotation Zrotation
											JOINT mixamorig:RightHandRing4
											{
												OFFSET -2.647499 0.000000 0.000000
												CHANNELS 6 Xposition Yposition Zposition Xrotation Yrotation Zrotation
												End Site
												{
													OFFSET 0.000000 2.647507 0.001231
												}
											}
										}
									}
								}
								JOINT mixamorig:RightHandMiddle1
								{
									OFFSET -9.532501 0.000000 0.000000
									CHANNELS 6 Xposition Yposition Zposition Xrotation Yrotation Zrotation
									JOINT mixamorig:RightHandMiddle2
									{
										OFFSET -3.698196 0.000000 0.000000
										CHANNELS 6 Xposition Yposition Zposition Xrotation Yrotation Zrotation
										JOINT mixamorig:RightHandMiddle3
										{
											OFFSET -2.950897 0.000000 0.000000
											CHANNELS 6 Xposition Yposition Zposition Xrotation Yrotation Zrotation
											JOINT mixamorig:RightHandMiddle4
											{
												OFFSET -2.833900 0.000000 0.000000
												CHANNELS 6 Xposition Yposition Zposition Xrotation Yrotation Zrotation
												End Site
												{
													OFFSET 0.000000 2.833893 0.001318
												}
											}
										}
									}
								}
								JOINT mixamorig:RightHandIndex1
								{
									OFFSET -9.108299 -0.517853 2.259859
									CHANNELS 6 Xposition Yposition Zposition Xrotation Yrotation Zrotation
									JOINT mixamorig:RightHandIndex2
									{
										OFFSET -3.676399 0.000000 0.000000
										CHANNELS 6 Xposition Yposition Zposition Xrotation Yrotation Zrotation
										JOINT mixamorig:RightHandIndex3
										{
											OFFSET -2.883102 0.000000 0.000000
											CHANNELS 6 Xposition Yposition Zposition Xrotation Yrotation Zrotation
											JOINT mixamorig:RightHandIndex4
											{
												OFFSET -2.392700 0.000000 0.000000
												CHANNELS 6 Xposition Yposition Zposition Xrotation Yrotation Zrotation
												End Site
												{
													OFFSET 0.000000 2.392700 0.001113
												}
											}
										}
									}
								}
								JOINT mixamorig:RightHandThumb1
								{
									OFFSET -2.464798 -1.573944 2.681868
									CHANNELS 6 Xposition Yposition Zposition Xrotation Yrotation Zrotation
									JOINT mixamorig:RightHandThumb2
									{
										OFFSET -3.229782 -1.864716 1.864716
										CHANNELS 6 Xposition Yposition Zposition Xrotation Yrotation Zrotation
										JOINT mixamorig:RightHandThumb3
										{
											OFFSET -2.652542 -1.531448 1.531448
											CHANNELS 6 Xposition Yposition Zposition Xrotation Yrotation Zrotation
											JOINT mixamorig:RightHandThumb4
											{
												OFFSET -1.954605 -1.128494 1.128493
												CHANNELS 6 Xposition Yposition Zposition Xrotation Yrotation Zrotation
												End Site
												{
													OFFSET 0.000412 2.523392 0.000704
												}
											}
										}
									}
								}
							}
						}
					}
				}
			}
		}
	}
	JOINT mixamorig:LeftUpLeg
	{
		OFFSET 8.207800 -6.751701 -1.599600
		CHANNELS 6 Xposition Yposition Zposition Xrotation Yrotation Zrotation
		JOINT mixamorig:LeftLeg
		{
			OFFSET 0.000000 -44.370499 0.284600
			CHANNELS 6 Xposition Yposition Zposition Xrotation Yrotation Zrotation
			JOINT mixamorig:LeftFoot
			{
				OFFSET 0.000000 -44.427898 -2.982200
				CHANNELS 6 Xposition Yposition Zposition Xrotation Yrotation Zrotation
				JOINT mixamorig:LeftToeBase
				{
					OFFSET 0.000000 -8.728700 10.710600
					CHANNELS 6 Xposition Yposition Zposition Xrotation Yrotation Zrotation
					JOINT mixamorig:LeftToe_End
					{
						OFFSET 0.000000 -0.000700 9.278099
						CHANNELS 6 Xposition Yposition Zposition Xrotation Yrotation Zrotation
						End Site
						{
							OFFSET 0.000000 9.278100 0.000000
						}
					}
				}
			}
		}
	}
	JOINT mixamorig:RightUpLeg
	{
		OFFSET -8.207800 -6.751701 -1.599600
		CHANNELS 6 Xposition Yposition Zposition Xrotation Yrotation Zrotation
		JOINT mixamorig:RightLeg
		{
			OFFSET 0.000000 -44.370499 0.286200
			CHANNELS 6 Xposition Yposition Zposition Xrotation Yrotation Zrotation
			JOINT mixamorig:RightFoot
			{
				OFFSET 0.000000 -44.427700 -2.983800
				CHANNELS 6 Xposition Yposition Zposition Xrotation Yrotation Zrotation
				JOINT mixamorig:RightToeBase
				{
					OFFSET 0.000000 -8.728700 10.710600
					CHANNELS 6 Xposition Yposition Zposition Xrotation Yrotation Zrotation
					JOINT mixamorig:RightToe_End
					{
						OFFSET 0.000000 -0.000700 9.278100
						CHANNELS 6 Xposition Yposition Zposition Xrotation Yrotation Zrotation
						End Site
						{
							OFFSET 0.000000 9.278100 0.000000
						}
					}
				}
			}
		}
	}
}
MOTION
Frames: 3
Frame Time: 0.016667
-2.237859 93.321335 0.040409 -73.188851 -98.368296 -75.228154 -0.000000 10.181603 0.131499 5.082579 -3.030670 -1.219104 -0.000000 10.083508 -1.000800 4.847007 -2.724706 -1.011896 -0.000000 9.100012 -1.373402 4.872820 -2.670295 -1.025820 0.000001 16.671715 -2.516201 -6.470347 11.543108 1.332228 -0.000002 9.617938 1.684999 1.868929 69.226460 6.189722 0.000005 17.815216 2.585001 -0.000000 -0.000001 -0.000002 3.067610 6.409515 9.283599 -0.000000 -0.000001 -0.000002 -3.067592 6.409515 9.283498 -0.000000 -0.000001 -0.000002 4.570402 10.945994 -2.628002 2.334450 -16.473641 5.405042 10.592390 -0.524567 -2.232100 -58.657596 -59.148318 -60.618994 27.841490 -0.000014 0.000002 -0.009269 -91.815760 -0.009348 28.328789 0.000006 -0.000001 -1.362818 2.416339 38.308373 2.466108 -1.576202 2.681699 2.333967 -4.852042 -3.963487 3.229776 -1.864735 1.864712 13.533803 36.265897 -6.789662 2.652596 -1.531481 1.531500 18.237435 69.607633 3.188397 1.954602 -1.128478 1.128500 0.000005 0.000000 -0.000002 9.109318 -0.518114 2.259869 2.878031 7.353409 -58.659652 3.676392 0.000008 0.000008 6.385697 5.826663 -95.251851 2.883121 -0.000002 -0.000011 2.817830 5.005790 -58.730543 2.392699 0.000001 0.000002 -0.000002 -0.000001 0.000001 9.533405 0.000007 0.000009 2.878031 7.353403 -58.659652 3.698201 0.000022 -0.000006 6.420565 5.823384 -95.595232 2.950894 -0.000006 -0.000002 1.278825 3.654812 -38.558764 2.833901 -0.000005 0.000001 -0.000002 -0.000000 -0.000003 9.104498 -0.043066 -1.865117 3.051701 7.454262 -60.629697 3.154016 0.000020 0.000010 5.249919 5.820213 -84.092825 2.937715 -0.000002 0.000006 2.817865 5.005811 -58.730550 2.647487 0.000005 0.000003 0.000002 -0.000001 0.000002 8.077789 -0.486971 -3.806311 2.878029 7.353402 -58.659652 3.599984 0.000026 -0.000001 3.100862 5.166431 -61.922229 2.114162 0.000020 0.000015 2.817872 5.005781 -58.730550 1.975674 -0.000012 -0.000001 -0.000000 0.000000 -0.000002 -4.570004 10.946211 -2.628002 2.128882 10.933916 -13.435712 -10.592802 -0.524800 -2.232092 -35.469186 -9.785002 14.948762 -27.841497 0.000018 -0.000002 65.603509 147.292210 -40.615129 -28.328796 0.000012 0.000001 -3.487208 38.281564 -6.676094 -8.076689 -0.486727 -3.806226 4.911934 -9.704398 53.806209 -3.599974 -0.000014 -0.000010 4.184451 -4.633165 84.167998 -2.114180 -0.000008 0.000005 1.827813 -3.700702 52.558528 -1.975705 0.000003 -0.000001 0.000001 -0.000001 0.000002 -9.103580 -0.043027 -1.865130 3.122518 -6.655057 70.080910 -3.154003 -0.000003 -0.000004 5.298708 -4.612862 97.926321 -2.937685 -0.000001 0.000002 2.043376 -3.855844 55.828976 -2.647492 -0.000000 0.000006 -0.000001 -0.000000 0.000000 -9.532495 0.000007 -0.000000 2.634494 -6.539957 74.809245 -3.698199 -0.000020 0.000002 5.688695 -4.541745 102.810289 -2.950902 -0.000011 0.000005 1.460403 -3.388468 46.621119 -2.833893 -0.000046 0.000002 -0.000002 -0.000000 0.000000 -9.108283 -0.517848 2.259857 2.770858 -6.512097 65.405379 -3.676389 0.000032 0.000011 4.589367 -4.656665 89.164725 -2.883092 -0.000003 -0.000001 1.495816 -3.421539 47.217514 -2.392687 -0.000016 0.000004 -0.000001 0.000001 0.000001 -2.464796 -1.573912 2.681873 2.454493 6.926603 5.617175 -3.229789 -1.864697 1.864724 7.810741 -26.809490 -3.040600 -2.652541 -1.531455 1.531441 18.936413 -62.858695 1.747881 -1.954613 -1.128495 1.128495 0.000001 -0.000000 0.000000 8.207797 -6.751704 -1.599599 -40.565880 8.424596 26.609553 0.000000 -44.370502 0.284593 40.744069 -8.134988 1.377597 -0.000004 -44.427898 -2.982203 -8.366938 1.470078 -14.416205 -0.000000 -8.728699 10.710600 -0.000005 0.000015 0.000000 -0.000001 -0.000700 9.278099 0.000000 0.000000 -0.000000 -8.207800 -6.751708 -1.599601 -42.150607 -4.711248 -10.864784 0.000002 -44.370514 0.286202 49.724464 -6.656617 0.009406 -0.000002 -44.427704 -2.983804 -13.198408 -1.608785 9.776930 0.000000 -8.728700 10.710597 0.000009 -0.000021 -0.000002 -0.000000 -0.000700 9.278097 0.000000 -0.000001 0.000000 
-2.154199 93.189499 -0.964994 -74.745513 -98.332608 -76.693763 0.000000 10.181612 0.131500 5.172194 -2.983159 -1.234289 -0.000000 10.083503 -1.000800 4.880362 -2.685993 -1.032455 -0.000000 9.100013 -1.373399 4.906368 -2.627166 -1.047247 0.000001 16.671694 -2.516205 -5.964862 11.522180 1.136584 0.000000 9.617922 1.685003 1.778991 68.765020 5.836781 -0.000004 17.815216 2.585000 0.000000 0.000000 0.000001 3.067600 6.409531 9.283598 0.000000 0.000000 0.000001 -3.067604 6.409531 9.283502 0.000000 0.000000 0.000001 4.570400 10.946012 -2.628009 2.287486 -16.715517 4.708126 10.592403 -0.524573 -2.232107 -57.554343 -59.419811 -60.254447 27.841505 -0.000006 -0.000000 9.955597 -91.497726 10.289023 28.328791 -0.000004 0.000005 -1.390923 2.212046 38.551043 2.466109 -1.576221 2.681684 2.333980 -4.852033 -3.963500 3.229797 -1.864725 1.864710 13.533785 36.265907 -6.789643 2.652610 -1.531481 1.531466 18.237471 69.607626 3.188373 1.954602 -1.128482 1.128487 0.000001 0.000001 -0.000002 9.109303 -0.518115 2.259857 2.878014 7.353397 -58.659652 3.676407 0.000022 0.000006 6.385692 5.826673 -95.251865 2.883086 0.000007 0.000008 2.817845 5.005801 -58.730536 2.392687 -0.000017 0.000006 -0.000002 0.000000 -0.000001 9.533418 0.000013 0.000003 2.878014 7.353391 -58.659652 3.698189 0.000014 0.000013 6.420544 5.823386 -95.595252 2.950899 0.000000 -0.000001 1.278815 3.654834 -38.558771 2.833912 0.000009 0.000000 -0.000001 -0.000000 0.000001 9.104496 -0.043068 -1.865118 3.051686 7.454248 -60.629704 3.154011 0.000022 0.000005 5.249919 5.820219 -84.092804 2.937716 0.000004 0.000005 2.817852 5.005799 -58.730543 2.647506 0.000014 -0.000003 -0.000002 0.000002 0.000003 8.077807 -0.486974 -3.806322 2.878013 7.353388 -58.659652 3.599994 0.000006 0.000003 3.100874 5.166436 -61.922222 2.114169 0.000002 0.000003 2.817855 5.005787 -58.730550 1.975690 0.000004 -0.000001 -0.000001 0.000000 -0.000002 -4.570003 10.946194 -2.628009 2.132654 10.921967 -13.537783 -10.592799 -0.524806 -2.232101 -34.585489 -8.988774 14.754832 -27.841501 0.000002 -0.000003 66.044425 147.355348 -41.521147 -28.328804 0.000010 -0.000003 -3.648741 38.020852 -6.153505 -8.076689 -0.486700 -3.806222 4.911916 -9.704397 53.806212 -3.599976 -0.000010 0.000021 4.184471 -4.633162 84.168032 -2.114193 -0.000005 -0.000011 1.827832 -3.700694 52.558531 -1.975716 0.000018 -0.000008 0.000002 -0.000001 0.000000 -9.103563 -0.043030 -1.865116 3.122521 -6.655067 70.080917 -3.153985 0.000001 0.000000 5.298708 -4.612872 97.926300 -2.937676 -0.000010 -0.000008 2.043372 -3.855849 55.828962 -2.647483 0.000016 0.000001 -0.000002 0.000000 -0.000000 -9.532495 -0.000003 0.000006 2.634511 -6.539969 74.809231 -3.698210 0.000019 0.000000 5.688713 -4.541721 102.810296 -2.950863 -0.000009 -0.000011 1.460389 -3.388472 46.621119 -2.833893 0.000015 -0.000009 -0.000002 -0.000000 -0.000000 -9.108292 -0.517849 2.259868 2.770846 -6.512092 65.405372 -3.676384 0.000002 -0.000001 4.589359 -4.656683 89.164718 -2.883087 -0.000013 0.000002 1.495836 -3.421553 47.217511 -2.392682 -0.000032 0.000001 -0.000003 -0.000000 0.000002 -2.464774 -1.573942 2.681876 2.454495 6.926602 5.617166 -3.229785 -1.864690 1.864721 7.810720 -26.809478 -3.040612 -2.652542 -1.531455 1.531453 18.936416 -62.858709 1.747876 -1.954610 -1.128495 1.128490 0.000000 0.000001 -0.000001 8.207796 -6.751692 -1.599601 -40.425916 8.307137 26.930833 0.000000 -44.370514 0.284598 39.963761 -8.148428 1.526027 -0.000003 -44.427902 -2.982198 -7.824926 1.255827 -15.032364 -0.000005 -8.728701 10.710599 0.004890 -0.000002 -0.000005 0.000001 -0.000700 9.278102 -0.000000 -0.000001 0.000000 -8.207798 -6.751696 -1.599601 -42.389831 -4.842733 -10.476784 0.000000 -44.370495 0.286206 50.357830 -6.885039 0.167195 -0.000003 -44.427700 -2.983801 -13.828043 -1.670536 9.622016 -0.000001 -8.728699 10.710600 0.000005 -0.000007 0.000001 0.000002 -0.000700 9.278104 0.000000 0.000001 0.000000 
-2.072203 93.105637 -2.046644 -76.283569 -98.315382 -78.146353 -0.000000 10.181598 0.131501 5.262131 -2.938557 -1.234207 0.000001 10.083498 -1.000802 4.912199 -2.649991 -1.047603 -0.000001 9.100000 -1.373401 4.938405 -2.587163 -1.063214 -0.000000 16.671711 -2.516202 -5.451208 11.503754 0.930973 0.000000 9.617897 1.685006 1.668555 68.282453 5.509502 -0.000009 17.815201 2.585002 0.000000 0.000002 -0.000000 3.067598 6.409515 9.283598 0.000000 0.000002 -0.000000 -3.067606 6.409515 9.283501 0.000000 0.000002 -0.000000 4.570402 10.945995 -2.627997 2.236299 -16.993466 3.977281 10.592406 -0.524603 -2.232098 -56.372966 -59.721706 -59.849430 27.841496 0.000009 0.000003 22.238268 -91.184952 22.883586 28.328802 -0.000004 -0.000002 -1.407881 1.990760 38.683009 2.466103 -1.576201 2.681684 2.334001 -4.852045 -3.963506 3.229769 -1.864703 1.864716 13.533773 36.265893 -6.789640 2.652606 -1.531490 1.531491 18.237507 69.607619 3.188357 1.954614 -1.128482 1.128479 -0.000002 -0.000000 -0.000001 9.109303 -0.518090 2.259865 2.878039 7.353390 -58.659673 3.676400 -0.000013 0.000002 6.385713 5.826681 -95.251858 2.883115 0.000008 0.000010 2.817855 5.005817 -58.730550 2.392686 -0.000014 0.000005 0.000000 0.000001 0.000003 9.533403 0.000008 -0.000006 2.878039 7.353384 -58.659679 3.698207 0.000019 -0.000006 6.420542 5.823373 -95.595239 2.950890 -0.000010 0.000005 1.278798 3.654841 -38.558767 2.833892 -0.000020 0.000006 -0.000001 0.000002 0.000000 9.104500 -0.043049 -1.865123 3.051712 7.454251 -60.629718 3.154004 0.000019 0.000002 5.249915 5.820209 -84.092818 2.937700 0.000010 -0.000002 2.817843 5.005804 -58.730536 2.647501 -0.000020 -0.000006 0.000000 -0.000001 0.000002 8.077789 -0.486962 -3.806322 2.878038 7.353381 -58.659679 3.599974 -0.000011 0.000012 3.100866 5.166421 -61.922242 2.114181 0.000015 -0.000003 2.817845 5.005806 -58.730536 1.975696 0.000006 -0.000003 0.000000 0.000001 -0.000001 -4.569999 10.946200 -2.628000 2.126856 10.870967 -13.616004 -10.592808 -0.524785 -2.232112 -33.419535 -8.239867 14.612437 -27.841501 0.000002 0.000005 66.311411 147.358244 -42.339421 -28.328806 -0.000003 -0.000009 -3.739521 37.998685 -5.791802 -8.076679 -0.486728 -3.806221 4.911930 -9.704409 53.806209 -3.599980 0.000018 0.000007 4.184462 -4.633150 84.168011 -2.114192 -0.000007 -0.000005 1.827821 -3.700681 52.558531 -1.975692 -0.000001 0.000001 0.000002 0.000001 0.000003 -9.103582 -0.043033 -1.865120 3.122527 -6.655054 70.080917 -3.153997 0.000019 -0.000002 5.298704 -4.612878 97.926280 -2.937680 0.000007 0.000013 2.043378 -3.855851 55.828969 -2.647491 0.000016 0.000008 0.000001 0.000000 -0.000000 -9.532499 0.000003 0.000002 2.634492 -6.539957 74.809245 -3.698193 0.000004 -0.000001 5.688701 -4.541747 102.810296 -2.950860 -0.000013 0.000003 1.460392 -3.388468 46.621116 -2.833893 -0.000015 -0.000004 -0.000001 0.000000 -0.000000 -9.108284 -0.517853 2.259864 2.770841 -6.512083 65.405393 -3.676418 0.000020 0.000015 4.589366 -4.656672 89.164725 -2.883089 0.000001 -0.000004 1.495816 -3.421536 47.217511 -2.392691 -0.000018 0.000002 -0.000001 -0.000001 -0.000001 -2.464786 -1.573949 2.681880 2.454500 6.926605 5.617171 -3.229783 -1.864703 1.864710 7.810732 -26.809483 -3.040607 -2.652539 -1.531470 1.531445 18.936407 -62.858709 1.747870 -1.954605 -1.128479 1.128494 0.000003 0.000000 0.000000 8.207801 -6.751706 -1.599595 -40.104132 8.075825 27.134101 0.000004 -44.370495 0.284603 38.952856 -8.125828 1.775303 -0.000001 -44.427895 -2.982200 -7.143844 1.187210 -15.731380 -0.000002 -8.728701 10.710597 0.008229 -0.000003 0.000001 0.000001 -0.000700 9.278096 -0.000000 -0.000000 -0.000000 -8.207798 -6.751717 -1.599597 -42.564229 -4.974878 -9.991530 -0.000002 -44.370487 0.286197 50.846250 -7.203913 0.300389 0.000001 -44.427700 -2.983802 -14.327838 -1.715275 9.473334 -0.000001 -8.728701 10.710602 0.000006 -0.000007 -0.000000 -0.000000 -0.000700 9.278096 -0.000000 -0.000001 -0.000000 
